<svg width="18" height="18" viewBox="0 0 18 18" fill="none" xmlns="http://www.w3.org/2000/svg">
<path d="M17.5161 15.9478C17.5879 16.0196 17.6448 16.1048 17.6837 16.1987C17.7226 16.2925 17.7426 16.393 17.7426 16.4945C17.7426 16.5961 17.7226 16.6966 17.6837 16.7904C17.6448 16.8842 17.5879 16.9695 17.5161 17.0412C17.4443 17.113 17.3591 17.17 17.2653 17.2089C17.1715 17.2477 17.0709 17.2677 16.9694 17.2677C16.8678 17.2677 16.7673 17.2477 16.6735 17.2089C16.5797 17.17 16.4945 17.113 16.4227 17.0412L8.69526 9.31384C8.62341 9.24207 8.56641 9.15685 8.52753 9.06304C8.48864 8.96923 8.46862 8.86867 8.46862 8.76712C8.46862 8.66557 8.48864 8.56502 8.52753 8.47121C8.56641 8.3774 8.62341 8.29217 8.69526 8.22041L16.4227 0.492997C16.5677 0.347999 16.7643 0.266541 16.9694 0.266541C17.1744 0.266541 17.3711 0.347999 17.5161 0.492997C17.6611 0.637995 17.7426 0.834654 17.7426 1.03971C17.7426 1.24477 17.6611 1.44143 17.5161 1.58643L10.3344 8.76712L17.5161 15.9478ZM2.60702 8.76712L9.78869 1.58643C9.93368 1.44143 10.0151 1.24477 10.0151 1.03971C10.0151 0.834654 9.93368 0.637995 9.78869 0.492997C9.64369 0.347999 9.44703 0.266541 9.24197 0.266541C9.03691 0.266541 8.84025 0.347999 8.69526 0.492997L0.967846 8.22041C0.895999 8.29217 0.839002 8.3774 0.800115 8.47121C0.761227 8.56502 0.741211 8.66557 0.741211 8.76712C0.741211 8.86867 0.761227 8.96923 0.800115 9.06304C0.839002 9.15685 0.895999 9.24207 0.967846 9.31384L8.69526 17.0412C8.76705 17.113 8.85229 17.17 8.94609 17.2089C9.0399 17.2477 9.14044 17.2677 9.24197 17.2677C9.34351 17.2677 9.44405 17.2477 9.53785 17.2089C9.63166 17.17 9.71689 17.113 9.78869 17.0412C9.86048 16.9695 9.91743 16.8842 9.95629 16.7904C9.99514 16.6966 10.0151 16.5961 10.0151 16.4945C10.0151 16.393 9.99514 16.2925 9.95629 16.1987C9.91743 16.1048 9.86048 16.0196 9.78869 15.9478L2.60702 8.76712Z" fill="white" fill-opacity="0.18"/>
</svg>
