<svg width="19" height="19" viewBox="0 0 19 19" fill="none" xmlns="http://www.w3.org/2000/svg">
<path d="M8.21847 0.808637C8.56254 -0.00583511 9.71676 -0.00583532 10.0608 0.808637L12.1415 5.73386C12.2428 5.9737 12.4336 6.16457 12.6735 6.26589L17.5987 8.34652C18.4132 8.69059 18.4132 9.84481 17.5987 10.1889L12.6735 12.2695C12.4336 12.3708 12.2428 12.5617 12.1415 12.8015L10.0608 17.7268C9.71676 18.5412 8.56254 18.5412 8.21847 17.7268L6.13784 12.8015C6.03652 12.5617 5.84565 12.3708 5.60581 12.2695L0.680585 10.1889C-0.133887 9.84481 -0.133887 8.69059 0.680585 8.34652L5.60581 6.26589C5.84565 6.16457 6.03652 5.9737 6.13784 5.73386L8.21847 0.808637Z" fill="white"/>
</svg>
